<svg width="61" height="30" viewBox="0 0 61 30" fill="none" xmlns="http://www.w3.org/2000/svg">
<path fill-rule="evenodd" clip-rule="evenodd" d="M56.5811 17.9416L52.6671 21.94C52.4508 20.4422 51.7734 19.0636 50.7415 18.0213L42.9557 10.07L42.9164 10.0302L42.8777 9.99034C42.1084 9.20488 41.6847 8.15975 41.6847 7.04844C41.6847 5.93714 42.1084 4.89201 42.8777 4.10584L42.9557 4.02687C43.733 3.24035 44.7652 2.80447 45.8368 2.81027C46.8797 2.81027 47.9232 3.2158 48.7172 4.02687L56.5817 12.0578C57.351 12.8433 57.7747 13.8884 57.7747 14.9997C57.7747 16.111 57.351 17.1562 56.5811 17.9416ZM48.7953 25.8936L48.7172 25.9733C47.1292 27.5954 44.5437 27.5954 42.9557 25.9733L39.0438 21.9785C40.4846 21.7699 41.8266 21.0805 42.8777 20.0091L42.9557 19.9302C44.0079 18.8559 44.6738 17.492 44.884 16.015L48.7953 20.0091C49.1713 20.3871 49.471 20.8431 49.6758 21.3491C49.8806 21.855 49.9863 22.4003 49.9863 22.9514C49.9863 23.5025 49.8806 24.0477 49.6758 24.5537C49.471 25.0597 49.1713 25.5156 48.7953 25.8936ZM17.5719 25.9733C15.984 27.5954 13.3985 27.5954 11.8105 25.9733L11.7324 25.8936C10.9631 25.1075 10.5394 24.063 10.5394 22.951C10.5394 21.8397 10.9631 20.7953 11.7324 20.0091L15.6443 16.015C15.8539 17.492 16.5197 18.8551 17.5726 19.9302L17.65 20.0091C18.701 21.0807 20.043 21.77 21.4839 21.9785L17.5719 25.9733ZM9.78547 18.0213C8.73393 19.0956 8.06738 20.4595 7.8572 21.9365L3.94595 17.9416C3.17664 17.1562 2.75296 16.111 2.75296 14.9997C2.75296 13.8884 3.17664 12.844 3.94595 12.0578L11.8105 4.02687C12.5878 3.24035 13.62 2.80447 14.6916 2.81027C15.7344 2.81027 16.778 3.2158 17.5719 4.02687L17.65 4.10584C18.4193 4.89201 18.8437 5.93714 18.8437 7.04844C18.8437 8.15975 18.4193 9.20417 17.65 9.99034L17.6113 10.0302L9.78614 18.0213H9.78547ZM58.5287 10.07L50.6641 2.03834C48.0019 -0.679445 43.671 -0.679445 41.0094 2.03834L40.9314 2.11802C39.6416 3.43493 38.9317 5.18584 38.9317 7.04844C38.9317 8.91034 39.6416 10.6612 40.9314 11.9789L40.9701 12.018L41.0088 12.0578C41.7787 12.8433 42.2024 13.8884 42.2024 14.9997C42.2024 16.111 41.7787 17.1562 41.0088 17.9416L40.9314 18.0213C40.1554 18.8103 39.1225 19.2472 38.0503 19.24C36.9781 19.2473 35.9452 18.8103 35.1693 18.0213L35.1306 17.9815L35.0912 17.9416C33.8021 16.6254 32.0874 15.8997 30.2638 15.8997C28.4403 15.8997 26.7256 16.6254 25.4365 17.9416L25.3584 18.0213C24.5824 18.8103 23.5495 19.2472 22.4774 19.24C21.4054 19.247 20.3728 18.8101 19.597 18.0213L19.5189 17.9416C18.7489 17.1562 18.3252 16.111 18.3252 14.9997C18.3252 13.8884 18.7489 12.844 19.5189 12.0578L19.5576 12.018L19.597 11.9782C20.886 10.662 21.5966 8.91034 21.5966 7.04773C21.5966 5.18584 20.886 3.43493 19.597 2.11802L19.5189 2.03834C16.8567 -0.679445 12.5264 -0.679445 9.8642 2.03834L1.999 10.07C0.709924 11.3869 0 13.1378 0 15.0004C0 16.8623 0.709924 18.6132 1.99966 19.9302L9.8235 27.9199L9.86354 27.9611C12.5258 30.6796 16.8567 30.6796 19.5182 27.9611L27.3834 19.9302C28.9714 18.308 31.5562 18.308 33.1449 19.9302L41.0088 27.9604C42.3399 29.3193 44.088 29.9995 45.8368 29.9995C47.5849 29.9995 49.333 29.3193 50.6641 27.9604L58.528 19.9294C59.8178 18.6125 60.5277 16.8616 60.5277 14.999C60.5277 13.1371 59.8178 11.3862 58.528 10.0686L58.5287 10.07Z" fill="white"/>
</svg>
