<svg width="58" height="12" viewBox="0 0 58 12" fill="none" xmlns="http://www.w3.org/2000/svg">
<path fill-rule="evenodd" clip-rule="evenodd" d="M18.7477 8.14738C18.7477 8.70659 18.3567 9.19323 17.8162 9.30493C16.1439 9.64761 14.4257 9.64761 12.7534 9.30493C12.2129 9.19323 11.8219 8.70659 11.8219 8.14738V0.131348H9.51332V8.14738C9.51332 8.70659 9.121 9.19323 8.58055 9.30493C6.90844 9.64752 5.19045 9.64752 3.51834 9.30493C2.97789 9.19323 2.58556 8.70659 2.58556 8.14738V0.131348H0.276978V8.14738C0.276978 9.82358 1.44728 11.2821 3.05929 11.6158C5.03421 12.023 7.06401 12.023 9.03893 11.6158C9.64076 11.4922 10.2019 11.2033 10.667 10.7777C11.116 11.1903 11.6725 11.487 12.295 11.6158C14.2699 12.0229 16.2997 12.0229 18.2746 11.6158C19.8873 11.2821 21.0569 9.82358 21.0569 8.14738V0.131348H18.7483V8.14738H18.7477ZM55.218 0.436564C53.2427 0.0314906 51.213 0.0314906 49.2377 0.436564C48.6358 0.559736 48.0745 0.848667 47.6097 1.27467C47.1448 0.848778 46.5836 0.559862 45.9817 0.436564C44.0065 0.0315296 41.9771 0.0315296 40.002 0.436564C38.39 0.769528 37.2197 2.22873 37.2197 3.90494V11.921H39.5283V3.90565C39.5283 3.34644 39.9206 2.8598 40.4604 2.7481C42.1327 2.40542 43.8509 2.40542 45.5233 2.7481C46.0637 2.8598 46.4554 3.34644 46.4554 3.90565V11.9217H48.764V3.90565C48.764 3.34644 49.1563 2.8598 49.6961 2.7481C51.3684 2.40547 53.0866 2.40547 54.759 2.7481C55.2994 2.8598 55.6904 3.34644 55.6904 3.90565V11.9217H57.9997V3.90565C57.9997 2.22945 56.8293 0.77024 55.2173 0.437276L55.218 0.436564ZM27.984 11.921H30.2926V0.131348H27.984V11.921Z" fill="white"/>
</svg>
